<svg xmlns="http://www.w3.org/2000/svg" viewBox="0 0 24 24" width="48" height="48" fill="white">
  <path d="M12 0C5.37 0 0 5.37 0 12c0 5.3 3.438 9.8 8.205 11.385.6.113.82-.26.82-.577v-2.2c-3.338.726-4.033-1.61-4.033-1.61-.546-1.385-1.333-1.754-1.333-1.754-1.089-.745.083-.729.083-.729 1.205.083 1.84 1.24 1.84 1.24 1.07 1.835 2.805 1.305 3.492.997.108-.774.42-1.305.763-1.605-2.665-.3-5.467-1.332-5.467-5.93 0-1.31.467-2.38 1.235-3.22-.123-.303-.534-1.523.117-3.176 0 0 1.007-.322 3.3 1.23a11.52 11.52 0 013.003-.403c1.02.005 2.045.137 3.003.403 2.29-1.553 3.294-1.23 3.294-1.23.654 1.653.243 2.873.12 3.176.77.84 1.233 1.91 1.233 3.22 0 4.61-2.807 5.625-5.478 5.92.432.372.816 1.102.816 2.222v3.293c0 .32.216.694.825.577C20.565 21.796 24 17.298 24 12c0-6.63-5.37-12-12-12z"/>
</svg>
